G75*
%MOIN*%
%OFA0B0*%
%FSLAX24Y24*%
%IPPOS*%
%LPD*%
%AMOC8*
5,1,8,0,0,1.08239X$1,22.5*
%
%ADD10C,0.0050*%
%ADD11C,0.0080*%
%ADD12C,0.0060*%
%ADD13C,0.0020*%
%ADD14R,0.4000X0.0200*%
%ADD15R,0.0250X0.0650*%
%ADD16R,0.0100X0.1600*%
%ADD17R,0.1900X0.0450*%
%ADD18R,0.0400X0.0300*%
%ADD19R,0.0400X0.0050*%
%ADD20R,0.0700X0.0050*%
D10*
X000525Y003581D02*
X000525Y004172D01*
X002100Y004172D01*
X002100Y004959D01*
X000525Y004959D01*
X000525Y006141D01*
X002100Y006141D01*
X002100Y006928D01*
X000525Y006928D01*
X000525Y007519D01*
X003675Y007519D01*
X003675Y003581D01*
X000525Y003581D01*
X000525Y004172D02*
X000525Y004959D01*
X000525Y006141D02*
X000525Y006928D01*
D11*
X001100Y001300D02*
X001350Y001050D01*
X001850Y001050D01*
X002100Y001300D01*
X002100Y001800D01*
X001850Y002050D01*
X001350Y002050D01*
X001100Y001800D01*
X001100Y001300D01*
X004214Y003286D02*
X004214Y007814D01*
X005986Y007814D01*
X005986Y003286D01*
X004214Y003286D01*
X004850Y002050D02*
X004600Y001800D01*
X004600Y001300D01*
X004850Y001050D01*
X005350Y001050D01*
X005600Y001300D01*
X005600Y001800D01*
X005350Y002050D01*
X004850Y002050D01*
D12*
X003600Y008750D02*
X000650Y008750D01*
X000650Y012350D01*
X003600Y012350D01*
X003600Y012000D01*
X002900Y012000D01*
X002900Y012200D01*
X002300Y012200D01*
X002300Y012000D01*
X001100Y012000D01*
X001100Y009100D01*
X002300Y009100D01*
X002300Y008900D01*
X002900Y008900D01*
X002900Y009100D01*
X003600Y009100D01*
X003600Y009350D01*
X007600Y009350D01*
X007600Y009100D01*
X007600Y008750D01*
X010550Y008750D01*
X010550Y012350D01*
X007600Y012350D01*
X007600Y012000D01*
X007600Y011750D01*
X003600Y011750D01*
X003600Y012000D01*
X003600Y009100D02*
X003600Y008750D01*
X007600Y009100D02*
X008300Y009100D01*
X008300Y008900D01*
X008900Y008900D01*
X008900Y009100D01*
X010100Y009100D01*
X010100Y012000D01*
X008900Y012000D01*
X008900Y012200D01*
X008300Y012200D01*
X008300Y012000D01*
X007600Y012000D01*
D13*
X007600Y011700D02*
X003600Y011700D01*
X003550Y010550D02*
X007650Y010550D01*
D14*
X005600Y009800D03*
X005600Y011300D03*
D15*
X003475Y011475D03*
X003475Y009625D03*
X007725Y009625D03*
X007725Y011475D03*
D16*
X009700Y010550D03*
X001500Y010550D03*
D17*
X002400Y009525D03*
X002400Y011575D03*
X008800Y011575D03*
X008800Y009525D03*
D18*
X008600Y009150D03*
X008600Y011950D03*
X002600Y011950D03*
X002600Y009150D03*
D19*
X003150Y009775D03*
X003150Y011325D03*
X008050Y011325D03*
X008050Y009775D03*
D20*
X009300Y009775D03*
X009300Y011325D03*
X001900Y011325D03*
X001900Y009775D03*
M02*
