G75*
%MOIN*%
%OFA0B0*%
%FSLAX24Y24*%
%IPPOS*%
%LPD*%
%AMOC8*
5,1,8,0,0,1.08239X$1,22.5*
%
%ADD10C,0.0000*%
%ADD11C,0.0700*%
%ADD12C,0.0740*%
%ADD13C,0.1000*%
D10*
X000100Y000550D02*
X000100Y013046D01*
X011470Y013046D01*
X011470Y000550D01*
X000100Y000550D01*
X005050Y010550D02*
X005052Y010597D01*
X005058Y010643D01*
X005068Y010689D01*
X005081Y010733D01*
X005099Y010777D01*
X005120Y010818D01*
X005144Y010858D01*
X005172Y010896D01*
X005203Y010931D01*
X005237Y010963D01*
X005273Y010992D01*
X005312Y011018D01*
X005352Y011041D01*
X005395Y011060D01*
X005439Y011076D01*
X005484Y011088D01*
X005530Y011096D01*
X005577Y011100D01*
X005623Y011100D01*
X005670Y011096D01*
X005716Y011088D01*
X005761Y011076D01*
X005805Y011060D01*
X005848Y011041D01*
X005888Y011018D01*
X005927Y010992D01*
X005963Y010963D01*
X005997Y010931D01*
X006028Y010896D01*
X006056Y010858D01*
X006080Y010818D01*
X006101Y010777D01*
X006119Y010733D01*
X006132Y010689D01*
X006142Y010643D01*
X006148Y010597D01*
X006150Y010550D01*
X006148Y010503D01*
X006142Y010457D01*
X006132Y010411D01*
X006119Y010367D01*
X006101Y010323D01*
X006080Y010282D01*
X006056Y010242D01*
X006028Y010204D01*
X005997Y010169D01*
X005963Y010137D01*
X005927Y010108D01*
X005888Y010082D01*
X005848Y010059D01*
X005805Y010040D01*
X005761Y010024D01*
X005716Y010012D01*
X005670Y010004D01*
X005623Y010000D01*
X005577Y010000D01*
X005530Y010004D01*
X005484Y010012D01*
X005439Y010024D01*
X005395Y010040D01*
X005352Y010059D01*
X005312Y010082D01*
X005273Y010108D01*
X005237Y010137D01*
X005203Y010169D01*
X005172Y010204D01*
X005144Y010242D01*
X005120Y010282D01*
X005099Y010323D01*
X005081Y010367D01*
X005068Y010411D01*
X005058Y010457D01*
X005052Y010503D01*
X005050Y010550D01*
X008470Y006050D02*
X008472Y006100D01*
X008478Y006150D01*
X008488Y006199D01*
X008502Y006247D01*
X008519Y006294D01*
X008540Y006339D01*
X008565Y006383D01*
X008593Y006424D01*
X008625Y006463D01*
X008659Y006500D01*
X008696Y006534D01*
X008736Y006564D01*
X008778Y006591D01*
X008822Y006615D01*
X008868Y006636D01*
X008915Y006652D01*
X008963Y006665D01*
X009013Y006674D01*
X009062Y006679D01*
X009113Y006680D01*
X009163Y006677D01*
X009212Y006670D01*
X009261Y006659D01*
X009309Y006644D01*
X009355Y006626D01*
X009400Y006604D01*
X009443Y006578D01*
X009484Y006549D01*
X009523Y006517D01*
X009559Y006482D01*
X009591Y006444D01*
X009621Y006404D01*
X009648Y006361D01*
X009671Y006317D01*
X009690Y006271D01*
X009706Y006223D01*
X009718Y006174D01*
X009726Y006125D01*
X009730Y006075D01*
X009730Y006025D01*
X009726Y005975D01*
X009718Y005926D01*
X009706Y005877D01*
X009690Y005829D01*
X009671Y005783D01*
X009648Y005739D01*
X009621Y005696D01*
X009591Y005656D01*
X009559Y005618D01*
X009523Y005583D01*
X009484Y005551D01*
X009443Y005522D01*
X009400Y005496D01*
X009355Y005474D01*
X009309Y005456D01*
X009261Y005441D01*
X009212Y005430D01*
X009163Y005423D01*
X009113Y005420D01*
X009062Y005421D01*
X009013Y005426D01*
X008963Y005435D01*
X008915Y005448D01*
X008868Y005464D01*
X008822Y005485D01*
X008778Y005509D01*
X008736Y005536D01*
X008696Y005566D01*
X008659Y005600D01*
X008625Y005637D01*
X008593Y005676D01*
X008565Y005717D01*
X008540Y005761D01*
X008519Y005806D01*
X008502Y005853D01*
X008488Y005901D01*
X008478Y005950D01*
X008472Y006000D01*
X008470Y006050D01*
X008470Y002050D02*
X008472Y002100D01*
X008478Y002150D01*
X008488Y002199D01*
X008502Y002247D01*
X008519Y002294D01*
X008540Y002339D01*
X008565Y002383D01*
X008593Y002424D01*
X008625Y002463D01*
X008659Y002500D01*
X008696Y002534D01*
X008736Y002564D01*
X008778Y002591D01*
X008822Y002615D01*
X008868Y002636D01*
X008915Y002652D01*
X008963Y002665D01*
X009013Y002674D01*
X009062Y002679D01*
X009113Y002680D01*
X009163Y002677D01*
X009212Y002670D01*
X009261Y002659D01*
X009309Y002644D01*
X009355Y002626D01*
X009400Y002604D01*
X009443Y002578D01*
X009484Y002549D01*
X009523Y002517D01*
X009559Y002482D01*
X009591Y002444D01*
X009621Y002404D01*
X009648Y002361D01*
X009671Y002317D01*
X009690Y002271D01*
X009706Y002223D01*
X009718Y002174D01*
X009726Y002125D01*
X009730Y002075D01*
X009730Y002025D01*
X009726Y001975D01*
X009718Y001926D01*
X009706Y001877D01*
X009690Y001829D01*
X009671Y001783D01*
X009648Y001739D01*
X009621Y001696D01*
X009591Y001656D01*
X009559Y001618D01*
X009523Y001583D01*
X009484Y001551D01*
X009443Y001522D01*
X009400Y001496D01*
X009355Y001474D01*
X009309Y001456D01*
X009261Y001441D01*
X009212Y001430D01*
X009163Y001423D01*
X009113Y001420D01*
X009062Y001421D01*
X009013Y001426D01*
X008963Y001435D01*
X008915Y001448D01*
X008868Y001464D01*
X008822Y001485D01*
X008778Y001509D01*
X008736Y001536D01*
X008696Y001566D01*
X008659Y001600D01*
X008625Y001637D01*
X008593Y001676D01*
X008565Y001717D01*
X008540Y001761D01*
X008519Y001806D01*
X008502Y001853D01*
X008488Y001901D01*
X008478Y001950D01*
X008472Y002000D01*
X008470Y002050D01*
D11*
X002056Y004566D02*
X001356Y004566D01*
X001356Y006534D02*
X002056Y006534D01*
D12*
X005100Y008550D03*
X005100Y002550D03*
X005100Y001550D03*
X001600Y001550D03*
D13*
X002600Y010050D02*
X002600Y011050D01*
X008600Y011050D02*
X008600Y010050D01*
M02*
